<svg width="128" height="32" viewBox="0 0 128 32" fill="none" xmlns="http://www.w3.org/2000/svg">
<g clip-path="url(#clip0)">
<path d="M15.0123 6.15509C16.9235 6.15509 18.4767 7.70829 18.4767 9.61948V26.9414L11.548 24.6318H3.46439C2.82925 24.6318 2.23453 24.4644 1.72642 24.1641L6.79597 20.2205L13.003 15.3935L6.79597 10.5664L1.72642 6.62278C2.23453 6.32254 2.82925 6.15509 3.46439 6.15509H15.0123ZM9.23836 15.3935L5.45641 18.3324L0.225185 22.3973C0.0808357 22.0162 0 21.6005 0 21.1674V9.61948C0 9.18643 0.0808357 8.7707 0.225185 8.38962L5.45641 12.4545L9.23836 15.3935Z" fill="#6140FF"></path>
<path d="M30.2324 15.048C32.251 15.6214 33.3971 16.9061 33.3971 18.7873C33.3971 21.0126 31.5165 22.4578 28.9471 22.4578C27.1352 22.4578 25.4146 21.7695 24.4053 20.3243L26.5157 18.5349C27.0434 19.3381 28.0296 19.7966 29.1082 19.7966C29.9102 19.7966 30.5303 19.5217 30.5303 18.9709C30.5303 18.4662 30.0713 18.2595 28.8328 17.9154L28.0296 17.6862C25.9423 17.1359 24.8868 15.7588 24.933 13.97C24.9555 11.8822 26.7224 10.4831 29.1307 10.4831C30.8057 10.4831 32.113 11.1027 33.0535 12.112L31.2873 14.0157C30.6452 13.4423 29.842 13.0751 28.9933 13.0751C28.2819 13.0751 27.7773 13.3043 27.7773 13.7864C27.7773 14.1993 28.0296 14.4285 29.1538 14.7495L30.2324 15.048ZM40.0285 10.4829C43.0338 10.4829 45.672 12.4103 45.672 16.1264C45.672 16.4018 45.672 16.7223 45.6264 17.2044H37.0462C37.2299 18.7414 38.5833 19.5902 40.0978 19.5902C41.5199 19.5902 42.5523 18.925 43.0569 18.145L45.3966 19.8881C44.3417 21.4252 42.4836 22.4576 40.0747 22.4576C36.6565 22.4576 33.9953 20.0948 33.9953 16.4705C33.9953 13.0748 36.5416 10.4829 40.0285 10.4829ZM37.1611 15.0709H42.5292C42.2538 13.7175 41.1071 13.0748 39.9373 13.0748C38.7669 13.0748 37.4597 13.6719 37.1611 15.0709ZM53.4044 10.483C56.1805 10.483 57.8319 12.5022 57.8319 15.4839V22.2053H54.6891V16.0116C54.6891 14.3597 53.9783 13.3504 52.6705 13.3504C51.2253 13.3504 50.1236 14.4059 50.1236 16.6081V22.2053H46.9814V10.7353H50.1236V12.0432C50.7206 11.1251 51.9135 10.483 53.4044 10.483ZM67.6756 12.02V5H70.8184V22.2053H67.6756V20.9206C67.171 21.655 65.955 22.4576 64.3723 22.4576C61.3208 22.4576 58.9812 19.7277 58.9812 16.4706C58.9812 13.2129 61.3208 10.483 64.3723 10.483C65.955 10.483 67.171 11.2861 67.6756 12.02ZM65.0375 19.5903C66.7576 19.5903 67.9279 18.2594 67.9279 16.4706C67.9279 14.6812 66.7576 13.3503 65.0375 13.3503C63.3174 13.3503 62.147 14.6812 62.147 16.4706C62.147 18.2594 63.3174 19.5903 65.0375 19.5903ZM77.7943 15.048C79.8129 15.6214 80.9596 16.9061 80.9596 18.7873C80.9596 21.0126 79.079 22.4578 76.5091 22.4578C74.6972 22.4578 72.9765 21.7695 71.9672 20.3243L74.0776 18.5349C74.6054 19.3381 75.5921 19.7966 76.6701 19.7966C77.4727 19.7966 78.0923 19.5217 78.0923 18.9709C78.0923 18.4662 77.6338 18.2595 76.3947 17.9154L75.5921 17.6862C73.5043 17.1359 72.4494 15.7588 72.495 13.97C72.5181 11.8822 74.2843 10.4831 76.6932 10.4831C78.3677 10.4831 79.6755 11.1027 80.6161 12.112L78.8492 14.0157C78.2072 13.4423 77.404 13.0751 76.5552 13.0751C75.8445 13.0751 75.3398 13.3043 75.3398 13.7864C75.3398 14.1993 75.5921 14.4285 76.7158 14.7495L77.7943 15.048ZM88.7607 10.483C91.8117 10.483 94.1519 13.2129 94.1519 16.4706C94.1519 19.7277 91.8117 22.4576 88.7607 22.4576C87.1781 22.4576 85.9621 21.655 85.4343 20.9206V27H82.2916V10.7353H85.4343V12.02C85.9621 11.2861 87.1781 10.483 88.7607 10.483ZM88.0725 19.5903C89.7931 19.5903 90.9629 18.2594 90.9629 16.4706C90.9629 14.6812 89.7931 13.3503 88.0725 13.3503C86.3524 13.3503 85.182 14.6812 85.182 16.4706C85.182 18.2594 86.3524 19.5903 88.0725 19.5903ZM103.398 12.02V10.7353H106.541V22.2053H103.398V20.9206C102.894 21.655 101.678 22.4576 100.095 22.4576C97.0439 22.4576 94.7037 19.7277 94.7037 16.4706C94.7037 13.2129 97.0439 10.483 100.095 10.483C101.678 10.483 102.894 11.2861 103.398 12.02ZM100.76 19.5903C102.481 19.5903 103.65 18.2594 103.65 16.4706C103.65 14.6812 102.481 13.3503 100.76 13.3503C99.04 13.3503 97.8696 14.6812 97.8696 16.4706C97.8696 18.2594 99.04 19.5903 100.76 19.5903ZM111.727 12.5704C112.118 11.4462 113.287 10.5975 114.573 10.5975C114.893 10.5975 115.237 10.6206 115.627 10.7355V13.9239C115.146 13.7633 114.709 13.6715 114.205 13.6715C112.714 13.6715 111.727 14.8419 111.727 16.7225V22.2055H108.585V10.7355H111.727V12.5704ZM123.047 16.2437L128.337 22.2053H124.46L119.78 16.9291V22.2053H116.637V5.00006H119.78V13.5375C120.038 13.6264 120.312 13.6807 120.606 13.6807C121.913 13.6807 122.625 12.6714 122.625 11.02V10.0223H125.767V11.5472C125.767 13.8521 124.777 15.5774 123.047 16.2437Z" fill="black"></path>
</g>
<defs>
<clipPath id="clip0">
<rect width="128" height="32" fill="white"></rect>
</clipPath>
</defs>
</svg>
