<?xml version="1.0" encoding="UTF-8"?>
<svg width="164px" height="28px" viewBox="0 0 164 28" version="1.1" xmlns="http://www.w3.org/2000/svg" xmlns:xlink="http://www.w3.org/1999/xlink">
    <title>Sendspark</title>
    <g id="Page-1" stroke="none" stroke-width="1" fill="none" fill-rule="evenodd">
        <g id="web-sendspark-sign_up" transform="translate(-634.000000, -98.000000)">
            <g id="Group-3" transform="translate(632.000000, 96.000000)">
                <rect id="Rectangle-3" fill-rule="nonzero" x="0" y="0" width="168" height="32"></rect>
                <path d="M20.6663294,5.01583607 C22.7285606,5.01583607 24.3991905,6.68747786 24.3991905,8.74869719 L24.3991905,19.9493043 L24.3991905,21.8162408 L24.3991905,28.3490008 L16.6997217,25.5491019 L6.14368834,25.5491019 L17.3432836,15.282469 L6.14368834,5.01583607 L20.6663294,5.01583607 Z M3.14545914,6.06627878 L13.1995952,15.2825702 L3.14545914,24.4988616 C2.44118391,23.8198836 2,22.8707311 2,21.8153301 L2,8.74879838 C2,7.69339742 2.44118391,6.74525677 3.14545914,6.06627878 Z M40.1481407,14.7883633 C42.7173286,15.5179357 44.1764736,17.1531495 44.1764736,19.5472805 C44.1764736,22.3795598 41.7833544,24.2191753 38.5129269,24.2191753 C36.2058184,24.2191753 34.016089,23.3428788 32.732001,21.5032633 L35.4185682,19.2265115 C36.089451,20.2485201 37.3452062,20.8323805 38.7173286,20.8323805 C39.7393372,20.8323805 40.5275993,20.4812547 40.5275993,19.7810271 C40.5275993,19.1384771 39.9437389,18.8763977 38.3672148,18.4382494 L37.3452062,18.1458133 C34.6879838,17.4445737 33.3452062,15.6929927 33.4028839,13.4162408 C33.4332406,10.7590185 35.6806476,8.97809259 38.7466734,8.97809259 C40.8777131,8.97809259 42.5422717,9.76635467 43.7393372,11.0514546 L41.4909183,13.4739185 C40.6743233,12.7443461 39.6513028,12.2778649 38.5716165,12.2778649 C37.6659752,12.2778649 37.0244371,12.5692891 37.0244371,13.1824943 C37.0244371,13.7076651 37.3452062,14.0001012 38.7760182,14.4089046 L40.1481407,14.7883633 Z M52.7315963,8.97789021 C56.5565393,8.97789021 59.9139894,11.4307109 59.9139894,16.1602833 C59.9139894,16.5103972 59.9139894,16.9202125 59.8552998,17.5324058 L48.9349861,17.5324058 C49.1687326,19.4883886 50.8919808,20.5690868 52.8186188,20.5690868 C54.6288895,20.5690868 55.9433342,19.723147 56.5848722,18.7294713 L59.5638755,20.9485454 C58.220086,22.9045282 55.8552998,24.2189729 52.7902859,24.2189729 C48.440172,24.2189729 45.0533772,21.2116367 45.0533772,16.5984316 C45.0533772,12.2776625 48.293448,8.97789021 52.7315963,8.97789021 Z M49.0817101,14.8175057 L55.9139894,14.8175057 C55.5628636,13.0952694 54.1037187,12.2776625 52.6152289,12.2776625 C51.1257273,12.2776625 49.4611687,13.0365798 49.0817101,14.8175057 Z M69.8694662,8.9779914 C73.4029851,8.9779914 75.50468,11.5481912 75.50468,15.3427776 L75.50468,23.8983051 L71.50468,23.8983051 L71.50468,16.0146724 C71.50468,13.9119656 70.6000506,12.6278776 68.935492,12.6278776 C67.0958765,12.6278776 65.6944093,13.9706552 65.6944093,16.7735897 L65.6944093,23.8983051 L61.6944093,23.8983051 L61.6944093,9.29876044 L65.6944093,9.29876044 L65.6944093,10.963319 C66.4543385,9.79559828 67.972173,8.9779914 69.8694662,8.9779914 Z M88.1468252,10.9339742 L88.1468252,2 L92.1468252,2 L92.1468252,23.8983051 L88.1468252,23.8983051 L88.1468252,22.2630913 C87.5042752,23.1970655 85.9570959,24.2190741 83.9424235,24.2190741 C80.0598027,24.2190741 77.0818113,20.7442449 77.0818113,16.5985328 C77.0818113,12.4528206 80.0598027,8.9779914 83.9424235,8.9779914 C85.9570959,8.9779914 87.5042752,10 88.1468252,10.9339742 Z M84.7893752,20.569188 C86.9791045,20.569188 88.4686061,18.8762965 88.4686061,16.5985328 C88.4686061,14.320769 86.9791045,12.6278776 84.7893752,12.6278776 C82.5996458,12.6278776 81.1101442,14.320769 81.1101442,16.5985328 C81.1101442,18.8762965 82.5996458,20.569188 84.7893752,20.569188 Z M101.139185,14.7883633 C103.708373,15.5179357 105.167518,17.1531495 105.167518,19.5472805 C105.167518,22.3795598 102.774399,24.2191753 99.5039717,24.2191753 C97.1968631,24.2191753 95.0071338,23.3428788 93.7230458,21.5032633 L96.409613,19.2265115 C97.0804958,20.2485201 98.3362509,20.8323805 99.7083734,20.8323805 C100.730382,20.8323805 101.518644,20.4812547 101.518644,19.7810271 C101.518644,19.1384771 100.934784,18.8763977 99.3582595,18.4382494 L98.3362509,18.1458133 C95.6790286,17.4445737 94.3362509,15.6929927 94.3939287,13.4162408 C94.4242854,10.7590185 96.6716924,8.97809259 99.7377182,8.97809259 C101.868758,8.97809259 103.533316,9.76635467 104.730382,11.0514546 L102.481963,13.4739185 C101.664356,12.7443461 100.642348,12.2778649 99.5616494,12.2778649 C98.65702,12.2778649 98.0154819,12.5692891 98.0154819,13.1824943 C98.0154819,13.7076651 98.3362509,14.0001012 99.767063,14.4089046 L101.139185,14.7883633 Z M115.211536,8.9779914 C119.094156,8.9779914 122.072148,12.4528206 122.072148,16.5985328 C122.072148,20.7442449 119.094156,24.2190741 115.211536,24.2190741 C113.196863,24.2190741 111.649684,23.1970655 110.977789,22.2630913 L110.977789,30 L106.977789,30 L106.977789,9.29876044 L110.977789,9.29876044 L110.977789,10.9339742 C111.649684,10 113.196863,8.9779914 115.211536,8.9779914 Z M114.335239,20.569188 C116.524968,20.569188 118.01447,18.8762965 118.01447,16.5985328 C118.01447,14.320769 116.524968,12.6278776 114.335239,12.6278776 C112.14551,12.6278776 110.65702,14.320769 110.65702,16.5985328 C110.65702,18.8762965 112.14551,20.569188 114.335239,20.569188 Z M133.955072,10.9339742 L133.955072,9.29876044 L137.955072,9.29876044 L137.955072,23.8983051 L133.955072,23.8983051 L133.955072,22.2630913 C133.313534,23.1970655 131.765343,24.2190741 129.75067,24.2190741 C125.86805,24.2190741 122.890058,20.7442449 122.890058,16.5985328 C122.890058,12.4528206 125.86805,8.9779914 129.75067,8.9779914 C131.765343,8.9779914 133.313534,10 133.955072,10.9339742 Z M130.597622,20.569188 C132.787351,20.569188 134.276853,18.8762965 134.276853,16.5985328 C134.276853,14.320769 132.787351,12.6278776 130.597622,12.6278776 C128.407893,12.6278776 126.919403,14.320769 126.919403,16.5985328 C126.919403,18.8762965 128.407893,20.569188 130.597622,20.569188 Z M144.67068,11.6351126 C145.167518,10.2043005 146.656008,9.12461422 148.291222,9.12461422 C148.699013,9.12461422 149.138174,9.15294713 149.633999,9.29865925 L149.633999,13.3573488 C149.020794,13.1529471 148.465267,13.0365798 147.823729,13.0365798 C145.926436,13.0365798 144.67068,14.5250696 144.67068,16.9202125 L144.67068,23.8982039 L140.67068,23.8982039 L140.67068,9.29865925 L144.67068,9.29865925 L144.67068,11.6351126 Z M159.608399,16.7776372 L165.925626,23.8983051 L160.991652,23.8983051 L155.035669,17.1823931 L155.035669,23.8983051 L151.035669,23.8983051 L151.035669,2 L155.035669,2 L155.035669,13.6751834 C155.307867,13.7470276 155.589173,13.7966102 155.888692,13.7966102 C157.553251,13.7966102 158.45788,12.5115102 158.45788,10.4098153 L158.45788,9.29876044 L162.456868,9.29876044 L162.456868,11.0806982 C162.456868,13.7308373 161.4298,15.779914 159.608399,16.7776372 Z" id="Combined-Shape" fill="#FFFFFF"></path>
            </g>
        </g>
    </g>
</svg>
